<svg width="1442" height="350" viewBox="0 0 1442 350" fill="none" xmlns="http://www.w3.org/2000/svg">
<g clip-path="url(#clip0)">
<path d="M18.5 195.5L0 209.5V211L2.5 730.5H1442.5V0L1397 49.5L1375.5 57.5L1364 39H1354.5L1341 30.5L1331.5 32L1306 57.5L1281.5 50L1251.5 55L1215 24.5L1192.5 39L1162.5 20L1139 21.5L1130.5 48.5L1085.5 71.5L1068 68.5L1046.5 77.5L1035.5 96L1020 114L1011 147L1004.5 151.5L988 159L977 162L963 171.5L957 181.5L947 192.5L935 194L892 170.5L879.5 173L862 176L847 192.5L824.5 198.5L801 196L781.5 191.5L746.5 167.5L697.5 116L687 97L648.5 80H625L588 67.5L519 107.5L505 80L477.5 97L454 80H425L398.5 97L295.5 117L240 154L93.5 164.5L58.5 188L18.5 195.5Z" fill="#4C7496"/>
</g>
<defs>
<clipPath id="clip0">
<rect width="1442" height="350" fill="white"/>
</clipPath>
</defs>
</svg>
